<svg width="13" height="15" viewBox="0 0 13 15" fill="none" xmlns="http://www.w3.org/2000/svg">
<path d="M11.78 3.04545H9.62V2.28182C9.61842 1.80977 9.44091 1.35753 9.12619 1.02373C8.81147 0.689942 8.38508 0.501677 7.94 0.5H5.06C4.61492 0.501677 4.18853 0.689942 3.87381 1.02373C3.55909 1.35753 3.38158 1.80977 3.38 2.28182V3.04545H1.22C1.02904 3.04545 0.845909 3.12591 0.710883 3.26912C0.575857 3.41233 0.5 3.60656 0.5 3.80909C0.5 4.01162 0.575857 4.20585 0.710883 4.34906C0.845909 4.49227 1.02904 4.57273 1.22 4.57273H1.46V13.2273C1.46158 13.5643 1.58851 13.8871 1.81321 14.1254C2.03792 14.3637 2.34223 14.4983 2.66 14.5H10.34C10.6578 14.4983 10.9621 14.3637 11.1868 14.1254C11.4115 13.8871 11.5384 13.5643 11.54 13.2273V4.57273H11.78C11.971 4.57273 12.1541 4.49227 12.2891 4.34906C12.4241 4.20585 12.5 4.01162 12.5 3.80909C12.5 3.60656 12.4241 3.41233 12.2891 3.26912C12.1541 3.12591 11.971 3.04545 11.78 3.04545ZM4.82 2.28182C4.82 2.21431 4.84529 2.14956 4.89029 2.10183C4.9353 2.05409 4.99635 2.02727 5.06 2.02727H7.94C8.00365 2.02727 8.0647 2.05409 8.10971 2.10183C8.15471 2.14956 8.18 2.21431 8.18 2.28182V3.04545H4.82V2.28182ZM10.1 12.9727H2.9V4.57273H10.1V12.9727ZM5.78 6.60909V10.6818C5.78 10.8843 5.70414 11.0786 5.56912 11.2218C5.43409 11.365 5.25096 11.4455 5.06 11.4455C4.86904 11.4455 4.68591 11.365 4.55088 11.2218C4.41586 11.0786 4.34 10.8843 4.34 10.6818V6.60909C4.34 6.40656 4.41586 6.21233 4.55088 6.06912C4.68591 5.92591 4.86904 5.84545 5.06 5.84545C5.25096 5.84545 5.43409 5.92591 5.56912 6.06912C5.70414 6.21233 5.78 6.40656 5.78 6.60909ZM8.66 6.60909V10.6818C8.66 10.8843 8.58414 11.0786 8.44912 11.2218C8.31409 11.365 8.13096 11.4455 7.94 11.4455C7.74904 11.4455 7.56591 11.365 7.43088 11.2218C7.29586 11.0786 7.22 10.8843 7.22 10.6818V6.60909C7.22 6.40656 7.29586 6.21233 7.43088 6.06912C7.56591 5.92591 7.74904 5.84545 7.94 5.84545C8.13096 5.84545 8.31409 5.92591 8.44912 6.06912C8.58414 6.21233 8.66 6.40656 8.66 6.60909Z" fill="#ADADAD"/>
</svg>
