<svg width="46" height="38" viewBox="0 0 46 38" fill="none" xmlns="http://www.w3.org/2000/svg">
<path d="M22.8594 30.9344L32.0833 21.375L22.8594 11.8156L19.651 15.1406L23.375 19H13.75V23.75H23.375L19.651 27.6094L22.8594 30.9344ZM4.58333 38C3.32292 38 2.24431 37.5353 1.3475 36.6059C0.449167 35.6749 0 34.5563 0 33.25V4.75C0 3.44375 0.449167 2.32592 1.3475 1.3965C2.24431 0.4655 3.32292 0 4.58333 0H18.3333L22.9167 4.75H41.25C42.5104 4.75 43.5898 5.2155 44.4881 6.1465C45.3849 7.07592 45.8333 8.19375 45.8333 9.5V33.25C45.8333 34.5563 45.3849 35.6749 44.4881 36.6059C43.5898 37.5353 42.5104 38 41.25 38H4.58333Z" fill="white"/>
</svg>
